<?xml version="1.0" encoding="utf-8"?>
<svg viewBox="19 19 262 262" width="300" height="300" xmlns="http://www.w3.org/2000/svg">
  <g transform="matrix(1, 0, 0, 1, 149.1700003917515, 39.02999936088915)">
    <polygon style="stroke: none; stroke-width: 1; stroke-dasharray: none; stroke-linecap: butt; stroke-dashoffset: 0; stroke-linejoin: miter; stroke-miterlimit: 4; fill: rgb(255, 255, 255); fill-rule: nonzero; opacity: 1;" vector-effect="non-scaling-stroke" points="0,-19.82 -34.32,0 0,19.82 34.32,0 "/>
  </g>
  <g transform="matrix(1, 0, 0, 1, 111.0400025701523, 61.0500001467764)">
    <polygon style="stroke: none; stroke-width: 1; stroke-dasharray: none; stroke-linecap: butt; stroke-dashoffset: 0; stroke-linejoin: miter; stroke-miterlimit: 4; fill-rule: nonzero; opacity: 1; fill: rgb(255, 255, 255);" vector-effect="non-scaling-stroke" points="0,-19.82 -34.32,0 0,19.82 34.32,0 "/>
  </g>
  <g transform="matrix(1, 0, 0, 1, 187.31000034973022, 61.0500001467764)">
    <polygon style="stroke: none; stroke-width: 1; stroke-dasharray: none; stroke-linecap: butt; stroke-dashoffset: 0; stroke-linejoin: miter; stroke-miterlimit: 4; fill-rule: nonzero; opacity: 1; fill: rgb(255, 255, 255);" vector-effect="non-scaling-stroke" points="0,-19.82 -34.32,0 0,19.82 34.32,0 "/>
  </g>
  <g transform="matrix(1, 0, 0, 1, 225.44000580072407, 83.0700009326637)">
    <polygon style="stroke: none; stroke-width: 1; stroke-dasharray: none; stroke-linecap: butt; stroke-dashoffset: 0; stroke-linejoin: miter; stroke-miterlimit: 4; fill-rule: nonzero; opacity: 1; fill: rgb(255, 255, 255);" vector-effect="non-scaling-stroke" points="0,-19.82 -34.32,0 0,19.82 34.32,0 "/>
  </g>
  <g transform="matrix(1, 0, 0, 1, 72.90000261217358, 83.0700009326637)">
    <polygon style="stroke: none; stroke-width: 1; stroke-dasharray: none; stroke-linecap: butt; stroke-dashoffset: 0; stroke-linejoin: miter; stroke-miterlimit: 4; fill-rule: nonzero; opacity: 1; fill: rgb(255, 255, 255);" vector-effect="non-scaling-stroke" points="0,-19.82 -34.32,0 0,19.82 34.32,0 "/>
  </g>
  <g transform="matrix(1, 0, 0, 1, 53.840000954866355, 204.16000670433047)">
    <polygon style="stroke: none; stroke-width: 1; stroke-dasharray: none; stroke-linecap: butt; stroke-dashoffset: 0; stroke-linejoin: miter; stroke-miterlimit: 4; fill-rule: nonzero; opacity: 1; fill: rgb(255, 255, 255);" vector-effect="non-scaling-stroke" points="-17.16,9.91 17.16,29.72 17.16,-9.91 -17.16,-29.72 "/>
  </g>
  <g transform="matrix(1, 0, 0, 1, 91.97000259116294, 226.17999604612575)">
    <polygon style="stroke: none; stroke-width: 1; stroke-dasharray: none; stroke-linecap: butt; stroke-dashoffset: 0; stroke-linejoin: miter; stroke-miterlimit: 4; fill-rule: nonzero; opacity: 1; fill: rgb(255, 255, 255);" vector-effect="non-scaling-stroke" points="-17.16,9.91 17.16,29.72 17.16,-9.91 -17.16,-29.72 "/>
  </g>
  <g transform="matrix(1, 0, 0, 1, 53.840000954866355, 160.13000726893554)">
    <polygon style="stroke: none; stroke-width: 1; stroke-dasharray: none; stroke-linecap: butt; stroke-dashoffset: 0; stroke-linejoin: miter; stroke-miterlimit: 4; fill-rule: nonzero; opacity: 1; fill: rgb(255, 255, 255);" vector-effect="non-scaling-stroke" points="-17.16,9.91 17.16,29.72 17.16,-9.91 -17.16,-29.72 "/>
  </g>
  <g transform="matrix(1, 0, 0, 1, 53.840000954866355, 116.08999806776635)">
    <polygon style="stroke: none; stroke-width: 1; stroke-dasharray: none; stroke-linecap: butt; stroke-dashoffset: 0; stroke-linejoin: miter; stroke-miterlimit: 4; fill-rule: nonzero; opacity: 1; fill: rgb(255, 255, 255);" vector-effect="non-scaling-stroke" points="-17.16,9.91 17.16,29.72 17.16,-9.91 -17.16,-29.72 "/>
  </g>
  <g transform="matrix(1, 0, 0, 1, 130.11000254914165, 248.20000064671032)">
    <polygon style="stroke: none; stroke-width: 1; stroke-dasharray: none; stroke-linecap: butt; stroke-dashoffset: 0; stroke-linejoin: miter; stroke-miterlimit: 4; fill-rule: nonzero; opacity: 1; fill: rgb(255, 255, 255);" vector-effect="non-scaling-stroke" points="-17.16,9.91 17.16,29.72 17.16,-9.91 -17.16,-29.72 "/>
  </g>
  <g transform="matrix(1, 0, 0, 1, 244.50999815031878, 204.16000670433047)">
    <polygon style="stroke: none; stroke-width: 1; stroke-dasharray: none; stroke-linecap: butt; stroke-dashoffset: 0; stroke-linejoin: miter; stroke-miterlimit: 4; fill-rule: nonzero; opacity: 1; fill: rgb(255, 255, 255);" vector-effect="non-scaling-stroke" points="17.16,9.91 -17.16,29.72 -17.16,-9.91 17.16,-29.72 "/>
  </g>
  <g transform="matrix(1, 0, 0, 1, 206.38000795811422, 226.17999604612575)">
    <polygon style="stroke: none; stroke-width: 1; stroke-dasharray: none; stroke-linecap: butt; stroke-dashoffset: 0; stroke-linejoin: miter; stroke-miterlimit: 4; fill-rule: nonzero; opacity: 1; fill: rgb(255, 255, 255);" vector-effect="non-scaling-stroke" points="17.16,9.91 -17.16,29.72 -17.16,-9.91 17.16,-29.72 "/>
  </g>
  <g transform="matrix(1, 0, 0, 1, 244.50999815031878, 160.13000726893554)">
    <polygon style="stroke: none; stroke-width: 1; stroke-dasharray: none; stroke-linecap: butt; stroke-dashoffset: 0; stroke-linejoin: miter; stroke-miterlimit: 4; fill-rule: nonzero; opacity: 1; fill: rgb(255, 255, 255);" vector-effect="non-scaling-stroke" points="17.16,9.91 -17.16,29.72 -17.16,-9.91 17.16,-29.72 "/>
  </g>
  <g transform="matrix(1, 0, 0, 1, 244.50999815031878, 116.08999806776635)">
    <polygon style="stroke: none; stroke-width: 1; stroke-dasharray: none; stroke-linecap: butt; stroke-dashoffset: 0; stroke-linejoin: miter; stroke-miterlimit: 4; fill-rule: nonzero; opacity: 1; fill: rgb(255, 255, 255);" vector-effect="non-scaling-stroke" points="17.16,9.91 -17.16,29.72 -17.16,-9.91 17.16,-29.72 "/>
  </g>
  <g transform="matrix(1, 0, 0, 1, 168.2400080001355, 248.20000064671032)">
    <polygon style="stroke: none; stroke-width: 1; stroke-dasharray: none; stroke-linecap: butt; stroke-dashoffset: 0; stroke-linejoin: miter; stroke-miterlimit: 4; fill-rule: nonzero; opacity: 1; fill: rgb(255, 255, 255);" vector-effect="non-scaling-stroke" points="17.16,9.91 -17.16,29.72 -17.16,-9.91 17.16,-29.72 "/>
  </g>
  <g transform="matrix(1, 0, 0, 1, 149.1700003917515, 215.17000137522805)">
    <polygon style="stroke: none; stroke-width: 1; stroke-dasharray: none; stroke-linecap: butt; stroke-dashoffset: 0; stroke-linejoin: miter; stroke-miterlimit: 4; fill-rule: nonzero; opacity: 1; fill: rgb(255, 255, 255);" vector-effect="non-scaling-stroke" points="0,19.82 34.32,0 0,-19.82 -34.32,0 "/>
  </g>
  <g transform="matrix(1, 0, 0, 1, 187.31000034973022, 193.1499967746436)">
    <polygon style="stroke: none; stroke-width: 1; stroke-dasharray: none; stroke-linecap: butt; stroke-dashoffset: 0; stroke-linejoin: miter; stroke-miterlimit: 4; fill-rule: nonzero; opacity: 1; fill: rgb(255, 255, 255);" vector-effect="non-scaling-stroke" points="0,19.82 34.32,0 0,-19.82 -34.32,0 "/>
  </g>
  <g transform="matrix(1, 0, 0, 1, 111.0400025701523, 193.1499967746436)">
    <polygon style="stroke: none; stroke-width: 1; stroke-dasharray: none; stroke-linecap: butt; stroke-dashoffset: 0; stroke-linejoin: miter; stroke-miterlimit: 4; fill-rule: nonzero; opacity: 1; fill: rgb(255, 255, 255);" vector-effect="non-scaling-stroke" points="0,19.82 34.32,0 0,-19.82 -34.32,0 "/>
  </g>
  <g transform="matrix(1, 0, 0, 1, 206.38000795811422, 116.08999806776635)">
    <polygon style="stroke: none; stroke-width: 1; stroke-dasharray: none; stroke-linecap: butt; stroke-dashoffset: 0; stroke-linejoin: miter; stroke-miterlimit: 4; fill-rule: nonzero; opacity: 1; fill: rgb(255, 255, 255);" vector-effect="non-scaling-stroke" points="17.16,-9.91 -17.16,-29.72 -17.16,9.91 17.16,29.72 "/>
  </g>
  <g transform="matrix(1, 0, 0, 1, 168.2400080001355, 94.08000323295593)">
    <polygon style="stroke: none; stroke-width: 1; stroke-dasharray: none; stroke-linecap: butt; stroke-dashoffset: 0; stroke-linejoin: miter; stroke-miterlimit: 4; fill-rule: nonzero; opacity: 1; fill: rgb(255, 255, 255);" vector-effect="non-scaling-stroke" points="17.16,-9.91 -17.16,-29.72 -17.16,9.91 17.16,29.72 "/>
  </g>
  <g transform="matrix(1, 0, 0, 1, 206.38000795811422, 160.13000726893554)">
    <polygon style="stroke: none; stroke-width: 1; stroke-dasharray: none; stroke-linecap: butt; stroke-dashoffset: 0; stroke-linejoin: miter; stroke-miterlimit: 4; fill-rule: nonzero; opacity: 1; fill: rgb(255, 255, 255);" vector-effect="non-scaling-stroke" points="17.16,-9.91 -17.16,-29.72 -17.16,9.91 17.16,29.72 "/>
  </g>
  <g transform="matrix(1, 0, 0, 1, 91.97000259116294, 116.08999806776635)">
    <polygon style="stroke: none; stroke-width: 1; stroke-dasharray: none; stroke-linecap: butt; stroke-dashoffset: 0; stroke-linejoin: miter; stroke-miterlimit: 4; fill-rule: nonzero; opacity: 1; fill: rgb(255, 255, 255);" vector-effect="non-scaling-stroke" points="-17.16,-9.91 17.16,-29.72 17.16,9.91 -17.16,29.72 "/>
  </g>
  <g transform="matrix(1, 0, 0, 1, 130.11000254914165, 94.08000323295593)">
    <polygon style="stroke: none; stroke-width: 1; stroke-dasharray: none; stroke-linecap: butt; stroke-dashoffset: 0; stroke-linejoin: miter; stroke-miterlimit: 4; fill-rule: nonzero; opacity: 1; fill: rgb(255, 255, 255);" vector-effect="non-scaling-stroke" points="-17.16,-9.91 17.16,-29.72 17.16,9.91 -17.16,29.72 "/>
  </g>
  <g transform="matrix(1, 0, 0, 1, 91.97000259116294, 160.13000726893554)">
    <polygon style="stroke: none; stroke-width: 1; stroke-dasharray: none; stroke-linecap: butt; stroke-dashoffset: 0; stroke-linejoin: miter; stroke-miterlimit: 4; fill-rule: nonzero; opacity: 1; fill: rgb(255, 255, 255);" vector-effect="non-scaling-stroke" points="-17.16,-9.91 17.16,-29.72 17.16,9.91 -17.16,29.72 "/>
  </g>
  <g transform="matrix(1, 0, 0, 1, 168.2400080001355, 160.13000726893554)">
    <polygon style="stroke: none; stroke-width: 1; stroke-dasharray: none; stroke-linecap: butt; stroke-dashoffset: 0; stroke-linejoin: miter; stroke-miterlimit: 4; fill-rule: nonzero; opacity: 1; fill: rgb(255, 255, 255);" vector-effect="non-scaling-stroke" points="17.16,9.91 17.16,-29.72 -17.16,-9.91 -17.16,29.72 "/>
  </g>
  <g transform="matrix(1, 0, 0, 1, 130.1000080421568, 160.13000726893554)">
    <polygon style="stroke: none; stroke-width: 1; stroke-dasharray: none; stroke-linecap: butt; stroke-dashoffset: 0; stroke-linejoin: miter; stroke-miterlimit: 4; fill-rule: nonzero; opacity: 1; fill: rgb(255, 255, 255);" vector-effect="non-scaling-stroke" points="-17.16,9.91 17.16,29.72 17.16,-9.91 -17.16,-29.72 "/>
  </g>
  <g transform="matrix(1, 0, 0, 1, 149.1700003917515, 127.10000036805863)">
    <polygon style="stroke: none; stroke-width: 1; stroke-dasharray: none; stroke-linecap: butt; stroke-dashoffset: 0; stroke-linejoin: miter; stroke-miterlimit: 4; fill-rule: nonzero; opacity: 1; fill: rgb(255, 255, 255);" vector-effect="non-scaling-stroke" points="0,-19.82 -34.32,0 0,19.82 34.32,0 "/>
  </g>
</svg>