<?xml version="1.0" encoding="utf-8"?>
<svg viewBox="36.68 19.21 224.99 258.71" width="224.99" height="258.71" xmlns="http://www.w3.org/2000/svg">
  <g transform="matrix(0.9999999999999999, 0, 0, 0.9999999999999999, 149.17000039175144, 39.02999936088918)">
    <polygon style="stroke: none; stroke-width: 1; stroke-dasharray: none; stroke-linecap: butt; stroke-dashoffset: 0; stroke-linejoin: miter; stroke-miterlimit: 4; fill: rgb(255, 255, 255); fill-rule: nonzero; opacity: 1;" vector-effect="non-scaling-stroke" points="0,-19.82 -34.32,0 0,19.82 34.32,0 "/>
  </g>
  <g transform="matrix(0.9999999999999999, 0, 0, 0.9999999999999999, 111.04000257015224, 61.050000146776426)">
    <polygon style="stroke: none; stroke-width: 1; stroke-dasharray: none; stroke-linecap: butt; stroke-dashoffset: 0; stroke-linejoin: miter; stroke-miterlimit: 4; fill-rule: nonzero; opacity: 1; fill: rgb(255, 255, 255);" vector-effect="non-scaling-stroke" points="0,-19.82 -34.32,0 0,19.82 34.32,0 "/>
  </g>
  <g transform="matrix(0.9999999999999999, 0, 0, 0.9999999999999999, 187.31000034973022, 61.050000146776426)">
    <polygon style="stroke: none; stroke-width: 1; stroke-dasharray: none; stroke-linecap: butt; stroke-dashoffset: 0; stroke-linejoin: miter; stroke-miterlimit: 4; fill-rule: nonzero; opacity: 1; fill: rgb(255, 255, 255);" vector-effect="non-scaling-stroke" points="0,-19.82 -34.32,0 0,19.82 34.32,0 "/>
  </g>
  <g transform="matrix(0.9999999999999999, 0, 0, 0.9999999999999999, 225.440005800724, 83.07000093266367)">
    <polygon style="stroke: none; stroke-width: 1; stroke-dasharray: none; stroke-linecap: butt; stroke-dashoffset: 0; stroke-linejoin: miter; stroke-miterlimit: 4; fill-rule: nonzero; opacity: 1; fill: rgb(255, 255, 255);" vector-effect="non-scaling-stroke" points="0,-19.82 -34.32,0 0,19.82 34.32,0 "/>
  </g>
  <g transform="matrix(0.9999999999999999, 0, 0, 0.9999999999999999, 72.90000261217358, 83.07000093266367)">
    <polygon style="stroke: none; stroke-width: 1; stroke-dasharray: none; stroke-linecap: butt; stroke-dashoffset: 0; stroke-linejoin: miter; stroke-miterlimit: 4; fill-rule: nonzero; opacity: 1; fill: rgb(255, 255, 255);" vector-effect="non-scaling-stroke" points="0,-19.82 -34.32,0 0,19.82 34.32,0 "/>
  </g>
  <g transform="matrix(0.9999999999999999, 0, 0, 0.9999999999999999, 53.84000095486641, 204.16000670433047)">
    <polygon style="stroke: none; stroke-width: 1; stroke-dasharray: none; stroke-linecap: butt; stroke-dashoffset: 0; stroke-linejoin: miter; stroke-miterlimit: 4; fill-rule: nonzero; opacity: 1; fill: rgb(255, 255, 255);" vector-effect="non-scaling-stroke" points="-17.16,9.91 17.16,29.72 17.16,-9.91 -17.16,-29.72 "/>
  </g>
  <g transform="matrix(0.9999999999999999, 0, 0, 0.9999999999999999, 91.97000259116294, 226.17999604612575)">
    <polygon style="stroke: none; stroke-width: 1; stroke-dasharray: none; stroke-linecap: butt; stroke-dashoffset: 0; stroke-linejoin: miter; stroke-miterlimit: 4; fill-rule: nonzero; opacity: 1; fill: rgb(255, 255, 255);" vector-effect="non-scaling-stroke" points="-17.16,9.91 17.16,29.72 17.16,-9.91 -17.16,-29.72 "/>
  </g>
  <g transform="matrix(0.9999999999999999, 0, 0, 0.9999999999999999, 53.84000095486641, 160.13000726893551)">
    <polygon style="stroke: none; stroke-width: 1; stroke-dasharray: none; stroke-linecap: butt; stroke-dashoffset: 0; stroke-linejoin: miter; stroke-miterlimit: 4; fill-rule: nonzero; opacity: 1; fill: rgb(255, 255, 255);" vector-effect="non-scaling-stroke" points="-17.16,9.91 17.16,29.72 17.16,-9.91 -17.16,-29.72 "/>
  </g>
  <g transform="matrix(0.9999999999999999, 0, 0, 0.9999999999999999, 53.84000095486641, 116.08999806776637)">
    <polygon style="stroke: none; stroke-width: 1; stroke-dasharray: none; stroke-linecap: butt; stroke-dashoffset: 0; stroke-linejoin: miter; stroke-miterlimit: 4; fill-rule: nonzero; opacity: 1; fill: rgb(255, 255, 255);" vector-effect="non-scaling-stroke" points="-17.16,9.91 17.16,29.72 17.16,-9.91 -17.16,-29.72 "/>
  </g>
  <g transform="matrix(0.9999999999999999, 0, 0, 0.9999999999999999, 130.1100025491416, 248.20000064671035)">
    <polygon style="stroke: none; stroke-width: 1; stroke-dasharray: none; stroke-linecap: butt; stroke-dashoffset: 0; stroke-linejoin: miter; stroke-miterlimit: 4; fill-rule: nonzero; opacity: 1; fill: rgb(255, 255, 255);" vector-effect="non-scaling-stroke" points="-17.16,9.91 17.16,29.72 17.16,-9.91 -17.16,-29.72 "/>
  </g>
  <g transform="matrix(0.9999999999999999, 0, 0, 0.9999999999999999, 244.50999815031872, 204.16000670433047)">
    <polygon style="stroke: none; stroke-width: 1; stroke-dasharray: none; stroke-linecap: butt; stroke-dashoffset: 0; stroke-linejoin: miter; stroke-miterlimit: 4; fill-rule: nonzero; opacity: 1; fill: rgb(255, 255, 255);" vector-effect="non-scaling-stroke" points="17.16,9.91 -17.16,29.72 -17.16,-9.91 17.16,-29.72 "/>
  </g>
  <g transform="matrix(0.9999999999999999, 0, 0, 0.9999999999999999, 206.38000795811416, 226.17999604612575)">
    <polygon style="stroke: none; stroke-width: 1; stroke-dasharray: none; stroke-linecap: butt; stroke-dashoffset: 0; stroke-linejoin: miter; stroke-miterlimit: 4; fill-rule: nonzero; opacity: 1; fill: rgb(255, 255, 255);" vector-effect="non-scaling-stroke" points="17.16,9.91 -17.16,29.72 -17.16,-9.91 17.16,-29.72 "/>
  </g>
  <g transform="matrix(0.9999999999999999, 0, 0, 0.9999999999999999, 244.50999815031872, 160.13000726893551)">
    <polygon style="stroke: none; stroke-width: 1; stroke-dasharray: none; stroke-linecap: butt; stroke-dashoffset: 0; stroke-linejoin: miter; stroke-miterlimit: 4; fill-rule: nonzero; opacity: 1; fill: rgb(255, 255, 255);" vector-effect="non-scaling-stroke" points="17.16,9.91 -17.16,29.72 -17.16,-9.91 17.16,-29.72 "/>
  </g>
  <g transform="matrix(0.9999999999999999, 0, 0, 0.9999999999999999, 244.50999815031872, 116.08999806776637)">
    <polygon style="stroke: none; stroke-width: 1; stroke-dasharray: none; stroke-linecap: butt; stroke-dashoffset: 0; stroke-linejoin: miter; stroke-miterlimit: 4; fill-rule: nonzero; opacity: 1; fill: rgb(255, 255, 255);" vector-effect="non-scaling-stroke" points="17.16,9.91 -17.16,29.72 -17.16,-9.91 17.16,-29.72 "/>
  </g>
  <g transform="matrix(0.9999999999999999, 0, 0, 0.9999999999999999, 168.2400080001355, 248.20000064671035)">
    <polygon style="stroke: none; stroke-width: 1; stroke-dasharray: none; stroke-linecap: butt; stroke-dashoffset: 0; stroke-linejoin: miter; stroke-miterlimit: 4; fill-rule: nonzero; opacity: 1; fill: rgb(255, 255, 255);" vector-effect="non-scaling-stroke" points="17.16,9.91 -17.16,29.72 -17.16,-9.91 17.16,-29.72 "/>
  </g>
  <g transform="matrix(0.9999999999999999, 0, 0, 0.9999999999999999, 149.17000039175144, 215.1700013752281)">
    <polygon style="stroke: none; stroke-width: 1; stroke-dasharray: none; stroke-linecap: butt; stroke-dashoffset: 0; stroke-linejoin: miter; stroke-miterlimit: 4; fill-rule: nonzero; opacity: 1; fill: rgb(255, 255, 255);" vector-effect="non-scaling-stroke" points="0,19.82 34.32,0 0,-19.82 -34.32,0 "/>
  </g>
  <g transform="matrix(0.9999999999999999, 0, 0, 0.9999999999999999, 187.31000034973022, 193.14999677464354)">
    <polygon style="stroke: none; stroke-width: 1; stroke-dasharray: none; stroke-linecap: butt; stroke-dashoffset: 0; stroke-linejoin: miter; stroke-miterlimit: 4; fill-rule: nonzero; opacity: 1; fill: rgb(255, 255, 255);" vector-effect="non-scaling-stroke" points="0,19.82 34.32,0 0,-19.82 -34.32,0 "/>
  </g>
  <g transform="matrix(0.9999999999999999, 0, 0, 0.9999999999999999, 111.04000257015224, 193.14999677464354)">
    <polygon style="stroke: none; stroke-width: 1; stroke-dasharray: none; stroke-linecap: butt; stroke-dashoffset: 0; stroke-linejoin: miter; stroke-miterlimit: 4; fill-rule: nonzero; opacity: 1; fill: rgb(255, 255, 255);" vector-effect="non-scaling-stroke" points="0,19.82 34.32,0 0,-19.82 -34.32,0 "/>
  </g>
  <g transform="matrix(0.9999999999999999, 0, 0, 0.9999999999999999, 206.38000795811416, 116.08999806776637)">
    <polygon style="stroke: none; stroke-width: 1; stroke-dasharray: none; stroke-linecap: butt; stroke-dashoffset: 0; stroke-linejoin: miter; stroke-miterlimit: 4; fill-rule: nonzero; opacity: 1; fill: rgb(255, 255, 255);" vector-effect="non-scaling-stroke" points="17.16,-9.91 -17.16,-29.72 -17.16,9.91 17.16,29.72 "/>
  </g>
  <g transform="matrix(0.9999999999999999, 0, 0, 0.9999999999999999, 168.2400080001355, 94.08000323295596)">
    <polygon style="stroke: none; stroke-width: 1; stroke-dasharray: none; stroke-linecap: butt; stroke-dashoffset: 0; stroke-linejoin: miter; stroke-miterlimit: 4; fill-rule: nonzero; opacity: 1; fill: rgb(255, 255, 255);" vector-effect="non-scaling-stroke" points="17.16,-9.91 -17.16,-29.72 -17.16,9.91 17.16,29.72 "/>
  </g>
  <g transform="matrix(0.9999999999999999, 0, 0, 0.9999999999999999, 206.38000795811416, 160.13000726893551)">
    <polygon style="stroke: none; stroke-width: 1; stroke-dasharray: none; stroke-linecap: butt; stroke-dashoffset: 0; stroke-linejoin: miter; stroke-miterlimit: 4; fill-rule: nonzero; opacity: 1; fill: rgb(255, 255, 255);" vector-effect="non-scaling-stroke" points="17.16,-9.91 -17.16,-29.72 -17.16,9.91 17.16,29.72 "/>
  </g>
  <g transform="matrix(0.9999999999999999, 0, 0, 0.9999999999999999, 91.97000259116294, 116.08999806776637)">
    <polygon style="stroke: none; stroke-width: 1; stroke-dasharray: none; stroke-linecap: butt; stroke-dashoffset: 0; stroke-linejoin: miter; stroke-miterlimit: 4; fill-rule: nonzero; opacity: 1; fill: rgb(255, 255, 255);" vector-effect="non-scaling-stroke" points="-17.16,-9.91 17.16,-29.72 17.16,9.91 -17.16,29.72 "/>
  </g>
  <g transform="matrix(0.9999999999999999, 0, 0, 0.9999999999999999, 130.1100025491416, 94.08000323295596)">
    <polygon style="stroke: none; stroke-width: 1; stroke-dasharray: none; stroke-linecap: butt; stroke-dashoffset: 0; stroke-linejoin: miter; stroke-miterlimit: 4; fill-rule: nonzero; opacity: 1; fill: rgb(255, 255, 255);" vector-effect="non-scaling-stroke" points="-17.16,-9.91 17.16,-29.72 17.16,9.91 -17.16,29.72 "/>
  </g>
  <g transform="matrix(0.9999999999999999, 0, 0, 0.9999999999999999, 91.97000259116294, 160.13000726893551)">
    <polygon style="stroke: none; stroke-width: 1; stroke-dasharray: none; stroke-linecap: butt; stroke-dashoffset: 0; stroke-linejoin: miter; stroke-miterlimit: 4; fill-rule: nonzero; opacity: 1; fill: rgb(255, 255, 255);" vector-effect="non-scaling-stroke" points="-17.16,-9.91 17.16,-29.72 17.16,9.91 -17.16,29.72 "/>
  </g>
  <g transform="matrix(0.9999999999999999, 0, 0, 0.9999999999999999, 168.2400080001355, 160.13000726893551)">
    <polygon style="stroke: none; stroke-width: 1; stroke-dasharray: none; stroke-linecap: butt; stroke-dashoffset: 0; stroke-linejoin: miter; stroke-miterlimit: 4; fill-rule: nonzero; opacity: 1; fill: rgb(255, 255, 255);" vector-effect="non-scaling-stroke" points="17.16,9.91 17.16,-29.72 -17.16,-9.91 -17.16,29.72 "/>
  </g>
  <g transform="matrix(0.9999999999999999, 0, 0, 0.9999999999999999, 130.10000804215673, 160.13000726893551)">
    <polygon style="stroke: none; stroke-width: 1; stroke-dasharray: none; stroke-linecap: butt; stroke-dashoffset: 0; stroke-linejoin: miter; stroke-miterlimit: 4; fill-rule: nonzero; opacity: 1; fill: rgb(255, 255, 255);" vector-effect="non-scaling-stroke" points="-17.16,9.91 17.16,29.72 17.16,-9.91 -17.16,-29.72 "/>
  </g>
  <g transform="matrix(0.9999999999999999, 0, 0, 0.9999999999999999, 149.17000039175144, 127.10000036805866)">
    <polygon style="stroke: none; stroke-width: 1; stroke-dasharray: none; stroke-linecap: butt; stroke-dashoffset: 0; stroke-linejoin: miter; stroke-miterlimit: 4; fill-rule: nonzero; opacity: 1; fill: rgb(255, 255, 255);" vector-effect="non-scaling-stroke" points="0,-19.82 -34.32,0 0,19.82 34.32,0 "/>
  </g>
</svg>